<svg width="17" height="17" viewBox="0 0 17 17" fill="none" xmlns="http://www.w3.org/2000/svg">
<path d="M3.5007 8.73707C3.19231 8.46054 2.71814 8.48636 2.44161 8.79475C2.16508 9.10314 2.19091 9.57731 2.4993 9.85384L3.5007 8.73707ZM6.01613 12L5.51543 12.5584C5.79797 12.8117 6.22522 12.8141 6.51057 12.5639L6.01613 12ZM14.4944 5.56394C14.8059 5.29087 14.837 4.81701 14.5639 4.50556C14.2909 4.1941 13.817 4.16299 13.5056 4.43606L14.4944 5.56394ZM2.4993 9.85384L5.51543 12.5584L6.51683 11.4416L3.5007 8.73707L2.4993 9.85384ZM6.51057 12.5639L14.4944 5.56394L13.5056 4.43606L5.52169 11.4361L6.51057 12.5639Z" fill="#868686"/>
</svg>
